<svg width="18" height="14" viewBox="0 0 18 14" fill="none" xmlns="http://www.w3.org/2000/svg">
<path d="M5.49687 2.65625C5.49687 3.88975 4.61978 4.78125 3.66406 4.78125C2.70833 4.78125 1.83125 3.88975 1.83125 2.65625C1.83125 1.42275 2.70833 0.53125 3.66406 0.53125C4.61978 0.53125 5.49687 1.42275 5.49687 2.65625Z" stroke="#234F68" stroke-width="1.0625"/>
<path d="M12.2331 11.1562C12.2331 9.92275 13.1102 9.03125 14.0659 9.03125C15.0217 9.03125 15.8987 9.92275 15.8987 11.1562C15.8987 12.3898 15.0217 13.2812 14.0659 13.2812C13.1102 13.2812 12.2331 12.3898 12.2331 11.1562Z" stroke="#234F68" stroke-width="1.0625"/>
<path d="M8.86499 3.1875H16.43" stroke="#234F68" stroke-width="2.125" stroke-linecap="round"/>
<path d="M8.86499 10.625L1.29999 10.625" stroke="#234F68" stroke-width="2.125" stroke-linecap="round"/>
</svg>
