<svg width="18" height="15" viewBox="0 0 20 17" fill="none" xmlns="http://www.w3.org/2000/svg">
<path d="M7.98012 15.0357L8.5578 14.2195L7.98012 15.0357ZM10 3.12441L9.2998 3.83836C9.68869 4.21976 10.3113 4.21976 10.7002 3.83836L10 3.12441ZM12.0199 15.0357L11.4422 14.2195H11.4422L12.0199 15.0357ZM10 16L10 15H10L10 16ZM8.5578 14.2195C7.25711 13.2989 5.57774 11.9827 4.23392 10.509C2.85485 8.99655 2 7.50246 2 6.2138H0C0 8.29105 1.30845 10.269 2.75606 11.8565C4.23893 13.4828 6.04961 14.8946 7.40243 15.852L8.5578 14.2195ZM2 6.2138C2 3.9755 3.05075 2.64821 4.31924 2.19273C5.61021 1.72919 7.47139 2.04517 9.2998 3.83836L10.7002 2.41046C8.47875 0.231812 5.83993 -0.478313 3.64336 0.310399C1.42432 1.10718 0 3.3105 0 6.2138H2ZM12.5976 15.852C13.9504 14.8946 15.7611 13.4828 17.2439 11.8566C18.6916 10.269 20 8.29106 20 6.21377H18C18 7.50248 17.1451 8.99659 15.7661 10.509C14.4223 11.9828 12.7429 13.299 11.4422 14.2195L12.5976 15.852ZM20 6.21377C20 3.31048 18.5757 1.10717 16.3566 0.310395C14.1601 -0.478313 11.5212 0.231812 9.2998 2.41046L10.7002 3.83836C12.5286 2.04517 14.3898 1.72919 15.6808 2.19273C16.9493 2.6482 18 3.97549 18 6.21377H20ZM7.40243 15.852C8.23242 16.4394 8.96156 17 10 17L10 15C9.72369 15 9.5445 14.9178 8.5578 14.2195L7.40243 15.852ZM11.4422 14.2195C10.4555 14.9178 10.2763 15 10 15L10 17C11.0384 17 11.7676 16.4394 12.5976 15.852L11.4422 14.2195Z" fill="#245069"/>
</svg>
