<svg width="16" height="16" viewBox="0 0 16 16" fill="none" xmlns="http://www.w3.org/2000/svg">
<path d="M9.3335 1.33334C9.3335 1.33334 10.8002 1.46668 12.6668 3.33334C14.5335 5.20001 14.6668 6.66668 14.6668 6.66668" stroke="#76C513" stroke-width="1.3" stroke-linecap="round"/>
<path d="M9.47119 3.69043C9.47119 3.69043 10.1312 3.87899 11.1211 4.86894C12.1111 5.85889 12.2996 6.51886 12.2996 6.51886" stroke="#76C513" stroke-width="1.3" stroke-linecap="round"/>
<path d="M2.67087 5.28871C2.62265 6.56081 2.94459 8.72114 5.11164 10.8882C5.63444 11.411 6.15686 11.8264 6.6665 12.1551M3.69171 3.29148C4.62034 2.36284 6.10195 2.48761 6.69156 3.5441L7.12424 4.31939C7.51471 5.01904 7.35796 5.93687 6.74298 6.55186C6.74298 6.55186 6.74298 6.55186 6.74298 6.55186C6.7429 6.55194 5.99709 7.29789 7.34951 8.65031C8.70149 10.0023 9.44743 9.25739 9.44797 9.25685C9.44799 9.25684 9.44798 9.25684 9.44799 9.25683C10.063 8.64186 10.9808 8.48512 11.6804 8.87559L12.4557 9.30826C13.5122 9.89787 13.637 11.3795 12.7084 12.3081C12.1503 12.8661 11.4668 13.3003 10.7111 13.329C10.1684 13.3495 9.46407 13.3027 8.6665 13.074" stroke="#76C513" stroke-width="1.3" stroke-linecap="round"/>
</svg>
